<svg width="29" height="30" viewBox="0 0 29 30" fill="none" xmlns="http://www.w3.org/2000/svg">
<g clip-path="url(#clip0_87_1894)">
<path d="M2.16998 14.5917H6.90998V11.0017H2.16998V14.5917ZM2.66998 11.5017H6.40998V14.0917H2.66998V11.5017Z" fill="black"/>
<path d="M2.16998 20.6717H6.90998V17.0717H2.16998V20.6717ZM2.66998 17.5817H6.40998V20.1817H2.66998V17.5817Z" fill="black"/>
<path d="M2.16998 26.7517H6.90998V23.1617H2.16998V26.7517ZM2.66998 23.6617H6.40998V26.2517H2.66998V23.6617Z" fill="black"/>
<path d="M20.69 14.5917H25.43V11.0017H20.69V14.5917ZM21.19 11.5017H24.93V14.0917H21.19V11.5017Z" fill="black"/>
<path d="M11.19 19.5218H16.79V13.5518H11.19V19.5218ZM11.69 14.0518H16.29V19.0218H11.69V14.0518Z" fill="black"/>
<path d="M11.19 9.70169H16.79V3.73169H11.19V9.70169ZM11.69 4.23169H16.29V9.20169H11.69V4.23169Z" fill="black"/>
<path d="M26.7 8.62171V7.34171H27.81V6.11171H19.27V3.26171C19.26 1.46171 17.8 0.00170898 16 0.00170898H12.06C10.26 0.00170898 8.8 1.46171 8.8 3.26171V6.12171H0.25V7.34171H1.36V8.62171H0V29.4117H8.81H9.31H11.69V24.8517C11.69 23.6017 12.6 22.5317 13.75 22.4117C14.41 22.3517 15.04 22.5517 15.53 22.9917C16.01 23.4317 16.29 24.0517 16.29 24.7017V29.4017H18.76H19.26H28.07V8.62171H26.7ZM6.87 7.34171H8.78V8.62171H6.87V7.34171ZM4.36 7.34171H6.27V8.62171H4.36V7.34171ZM1.86 7.34171H3.86V8.62171H1.86V7.34171ZM8.81 28.9117H0.5V9.12171H1.36H3.86H4.36H6.27H6.87H8.81V28.9117ZM18.76 8.62171V28.9117H16.79V24.7117C16.79 23.9217 16.45 23.1617 15.87 22.6317C15.28 22.0917 14.5 21.8417 13.7 21.9217C12.29 22.0617 11.19 23.3517 11.19 24.8517V28.9117H9.31V8.62171V3.26171C9.31 1.74171 10.55 0.501709 12.07 0.501709H16C17.52 0.501709 18.76 1.74171 18.76 3.26171V8.62171ZM24.19 7.34171H26.19V8.62171H24.19V7.34171ZM21.78 7.34171H23.69V8.62171H21.78V7.34171ZM19.28 7.34171H21.19V8.62171H19.28V7.34171ZM27.57 28.9117H19.26V9.12171H21.18H21.78H23.69H24.19H26.69H27.56V28.9117H27.57Z" fill="black"/>
<path d="M20.69 20.6717H25.43V17.0717H20.69V20.6717ZM21.19 17.5817H24.93V20.1817H21.19V17.5817Z" fill="black"/>
<path d="M20.69 26.7517H25.43V23.1617H20.69V26.7517ZM21.19 23.6617H24.93V26.2517H21.19V23.6617Z" fill="black"/>
</g>
<defs>
<clipPath id="clip0_87_1894">
<rect width="28.07" height="29.41" fill="white" transform="translate(0 0.00170898)"/>
</clipPath>
</defs>
</svg>
