<svg width="29" height="31" viewBox="0 0 29 31" fill="none" xmlns="http://www.w3.org/2000/svg">
<path d="M1.75 15.6818L9.19 20.0318L1.75 15.6818Z" fill="black"/>
<path d="M1 23.8117V16.4017L8.63 20.8717L0 15.8217V24.3617L8.63 29.8117V28.6317L1 23.8117Z" fill="black"/>
<path d="M20.55 10.1217L27.23 14.0217L9.19001 20.0317L28.49 13.6017L20.68 9.04175L0.570007 14.9917L1.75001 15.6817L20.55 10.1217Z" fill="black"/>
<path d="M9.63 20.9417L27.94 14.8417L9.63 20.9417Z" fill="black"/>
<path d="M8.63 20.2217L9.19 20.0317L1.75 15.6817L0.57 14.9917L0 15.1617V15.8217L8.63 20.8717V20.2217Z" fill="black"/>
<path d="M28.94 14.5117L27.94 14.8417V22.5817L9.63 28.8417V29.9017L28.94 23.3017V14.5117Z" fill="black"/>
<path d="M9.63 20.9417L9.08 21.1217L8.63 20.8717V28.6317V29.8117L9.07 30.0917L9.63 29.9017V28.8417V20.9417Z" fill="black"/>
<path d="M9.63 20.2917V20.9417L27.94 14.8417L28.94 14.5117V13.8617L28.49 13.6017L9.19 20.0317L9.63 20.2917Z" fill="black"/>
<path d="M9.19 20.0317L8.63 20.2217V20.8717L9.08 21.1217L9.63 20.9417V20.2917L9.19 20.0317Z" fill="black"/>
<path d="M8.43 16.5017L23.89 12.3117C25.25 11.9417 25.47 10.1117 24.23 9.43169L17.37 5.66169C16.7 5.29169 15.87 5.46169 15.4 6.05169L7.79 15.5317C7.42 15.9917 7.86 16.6617 8.43 16.5017Z" fill="white"/>
<path d="M8.26002 17.0217C7.89002 17.0217 7.55002 16.8417 7.34002 16.5217C7.07002 16.1117 7.09002 15.5917 7.40002 15.2117L15.01 5.73167C15.64 4.95167 16.73 4.73167 17.61 5.21167L24.47 8.98167C25.22 9.39167 25.63 10.1817 25.52 11.0317C25.42 11.8817 24.84 12.5517 24.01 12.7817L8.56002 16.9817C8.46002 17.0117 8.36002 17.0217 8.26002 17.0217ZM16.62 5.96167C16.31 5.96167 16 6.10167 15.79 6.36167L8.18002 15.8417C8.17002 15.8617 8.13002 15.9017 8.17002 15.9717C8.21002 16.0417 8.27002 16.0217 8.29002 16.0217L23.75 11.8317C24.26 11.6917 24.49 11.2717 24.53 10.9317C24.57 10.5917 24.45 10.1317 23.99 9.87167L17.13 6.10167C16.97 6.00167 16.79 5.96167 16.62 5.96167Z" fill="black"/>
<path d="M14.47 11.4017L21.27 6.32167V4.70167L25.91 0.861666C26.52 0.361666 27.4 0.391666 27.97 0.941666C28.72 1.67167 28.55 2.93167 27.62 3.42167L23.31 5.70167L21.99 5.04167" fill="white"/>
<path d="M14.77 11.8017L14.17 11.0017L20.77 6.07171V4.46171L25.59 0.471713C26.39 -0.198287 27.57 -0.148287 28.32 0.581713C28.8 1.04171 29.02 1.68171 28.92 2.34171C28.83 3.00171 28.44 3.55171 27.85 3.86171L23.31 6.26171L21.77 5.49171V6.59171L14.77 11.8017ZM21.77 4.93171V5.44171L22.21 4.57171L23.3 5.12171L27.38 2.96171C27.68 2.80171 27.88 2.52171 27.93 2.18171C27.98 1.85171 27.87 1.52171 27.62 1.28171C27.24 0.911713 26.64 0.891713 26.23 1.23171L21.77 4.93171Z" fill="black"/>
</svg>
