<svg width="95" height="96" viewBox="0 0 95 96" fill="none" xmlns="http://www.w3.org/2000/svg">
<path d="M42.33 40.4301C40.55 42.2001 38.8299 43.89 37.1199 45.59C34.5599 48.15 32.02 50.73 29.42 53.26C28.78 53.89 28.73 54.4401 29.14 55.1801C30.13 56.9701 31.7499 57.74 33.6799 57.97C35.9899 58.25 38.2399 57.8299 40.3999 57.0699C42.4899 56.3299 44.54 55.45 46.57 54.55C48.38 53.75 50.07 53.96 51.57 55.12C54.11 57.09 56.6 59.13 59.07 61.2C64.52 65.76 69.95 70.3501 75.38 74.9301C76.91 76.2201 77.35 77.88 76.58 79.6C75.8 81.34 73.96 82.45 72.16 82.12C71.51 82 70.82 81.67 70.31 81.25C65.18 77.06 60.08 72.83 54.97 68.61C54.8 68.47 54.65 68.25 54.47 68.22C54.15 68.17 53.8 68.24 53.47 68.26C53.52 68.59 53.4599 69.05 53.6499 69.23C54.4699 70 55.36 70.69 56.23 71.41C60.63 75.05 65.0299 78.7 69.4299 82.34C70.7299 83.42 70.88 85.54 69.72 86.99C68.46 88.58 66.34 88.88 64.79 87.64C63.15 86.34 61.56 84.98 59.95 83.64C55.78 80.18 51.61 76.72 47.44 73.26C47.25 73.11 47.07 72.87 46.86 72.84C46.58 72.81 46.2 72.86 46.03 73.04C45.9 73.17 45.94 73.6199 46.07 73.8199C46.27 74.1199 46.6099 74.3399 46.8999 74.5699C51.5799 78.4599 56.28 82.34 60.95 86.24C62.85 87.83 62.29 90.71 59.95 91.53C58.84 91.92 57.8499 91.65 56.9599 90.9C53.2899 87.84 49.62 84.79 45.94 81.75C45.69 81.54 45.46 81.2601 45.17 81.1801C44.92 81.1101 44.52 81.2 44.35 81.38C44.22 81.51 44.2799 81.92 44.3699 82.16C44.45 82.36 44.7 82.49 44.89 82.65C46.79 84.23 48.69 85.8 50.58 87.39C52.08 88.65 52.27 90.44 51.07 91.86C49.94 93.2 48.0999 93.3 46.6199 92.11C46.4899 92.01 46.3799 91.8901 46.2399 91.8101C45.3699 91.2701 45.08 90.66 45.33 89.52C45.89 86.93 44 84.34 41.3699 83.75C41.1099 83.69 40.8599 83.6399 40.4899 83.5699C42.4699 81.6299 43.1199 79.43 41.84 77.02C40.5 74.5 38.24 73.84 35.53 74.47C36.06 69.75 31.38 66.69 27.2 69.3C27.1 67.22 26.33 65.53 24.47 64.52C22.6 63.5 20.76 63.69 18.82 64.88C17.34 60.55 15.26 56.67 11.08 54.23C16.65 48.72 22.0599 43.37 27.5199 37.98C27.9599 38.46 28.35 38.8999 28.75 39.3199C29.19 39.7899 29.66 40.24 30.07 40.73C31.48 42.38 33.02 42.82 35.1 41.79C37.35 40.67 39.83 40.4701 42.33 40.4301Z" fill="#D7A100"/>
<path d="M74.12 31.21C77.86 39.68 81.57 48.06 85.3 56.51C85 56.7 84.72 56.8901 84.43 57.0601C81.51 58.8101 79.89 61.26 79.99 64.79C80.06 67.21 78.66 68.91 76.83 70.28C74.29 72.18 74.21 72.1699 71.79 70.1899C69.26 68.1099 66.74 66.0199 64.22 63.9399C63.89 63.6699 63.59 63.37 63.18 63.01C64.27 63.19 65.23 63.41 66.19 63.48C66.87 63.53 67.58 63.44 68.25 63.29C68.48 63.24 68.79 62.7701 68.75 62.5601C68.7 62.3401 68.25 62 68.03 62.03C64.48 62.61 61.66 60.92 58.95 59.04C57.01 57.7 55.22 56.15 53.34 54.72C52.66 54.2 51.95 53.6901 51.19 53.3101C49.39 52.4101 47.59 52.49 45.79 53.4C42.81 54.91 39.73 56.15 36.38 56.55C35.36 56.67 34.29 56.59 33.26 56.48C32.7 56.42 32.12 56.16 31.62 55.87C30.14 54.99 30.1 54.51 31.28 53.33C34.85 49.76 38.42 46.21 41.97 42.62C42.61 41.97 43.32 41.64 44.22 41.52C49.67 40.78 55.12 40.04 60.55 39.23C61.48 39.09 62.43 38.7 63.22 38.2C66.52 36.14 69.76 33.99 73.02 31.87C73.35 31.69 73.67 31.49 74.12 31.21Z" fill="#D7A100"/>
<path d="M77.42 26.5699C78.1 28.0099 78.76 29.4099 79.41 30.8199C81.4 35.0699 83.39 39.3201 85.38 43.5601C85.47 43.7501 85.52 44.01 85.67 44.13C85.94 44.33 86.31 44.6 86.57 44.53C87.04 44.41 87.07 43.97 86.87 43.54C86.41 42.54 85.94 41.55 85.47 40.55C83.3 35.91 81.13 31.28 78.96 26.64C78.87 26.45 78.81 26.25 78.71 25.98C79.74 25.52 80.73 25.08 81.85 24.58C86.15 34.3 90.43 43.99 94.75 53.77C93.5 54.32 92.31 54.85 91.12 55.38C90.41 55.69 89.7 56.02 88.99 56.33C87.62 56.93 86.84 56.63 86.23 55.25C83.85 49.86 81.46 44.4599 79.08 39.0699C77.73 36.0099 76.37 32.94 75.02 29.88C74.42 28.52 74.73 27.73 76.11 27.13C76.52 26.94 76.94 26.7699 77.42 26.5699Z" fill="#D7A100"/>
<path d="M2.57997 53.27C1.80997 52.54 1.08997 51.87 0.339966 51.15C7.90997 43.66 15.44 36.22 23.01 28.73C24.24 29.97 25.43 31.15 26.62 32.34C26.68 32.4 26.73 32.46 26.78 32.52C28.56 34.42 28.57 35.03 26.74 36.84C20.53 42.99 14.31 49.13 8.09998 55.28C6.70998 56.65 5.72997 56.62 4.33997 55.21C4.07997 54.94 3.75998 54.74 3.39998 54.46C3.71998 54.11 3.90997 53.9 4.10997 53.7C8.59997 49.2 13.1 44.71 17.59 40.22C17.76 40.05 18.01 39.8999 18.07 39.6899C18.15 39.4199 18.18 39 18.03 38.85C17.87 38.69 17.42 38.66 17.19 38.77C16.87 38.92 16.63 39.25 16.36 39.52C11.98 43.9 7.60997 48.28 3.23997 52.67C3.00997 52.86 2.79997 53.06 2.57997 53.27Z" fill="#D7A100"/>
<path d="M41.27 79.35C41.08 80.48 40.72 81.4101 39.94 82.1501C37.09 84.8301 34.25 87.5101 31.37 90.1601C30.01 91.4101 28.24 91.5701 26.76 90.6801C25.36 89.8401 24.65 88.23 25.01 86.61C25.09 86.26 25.22 85.85 25.47 85.61C28.5 82.62 31.53 79.63 34.62 76.69C36.39 75 39.03 75.2301 40.37 77.1701C40.8 77.8101 40.98 78.62 41.27 79.35Z" fill="#D7A100"/>
<path d="M30.6599 69.67C32.0099 69.73 33.2299 70.46 33.8699 71.96C34.5099 73.45 34.2999 74.9001 33.1599 76.0601C30.4399 78.8401 27.6799 81.58 24.8799 84.28C23.3699 85.74 21.0399 85.64 19.5899 84.17C18.1499 82.71 18.1 80.4 19.54 78.87C20.68 77.66 21.8899 76.52 23.0699 75.35C24.5899 73.84 26.12 72.3301 27.64 70.8101C28.4 70.0501 29.3099 69.67 30.6599 69.67Z" fill="#D7A100"/>
<path d="M14.04 73.58C14.05 72.6 14.38 71.7401 15.03 71.0201C16.39 69.5001 17.74 67.98 19.12 66.49C20.59 64.91 22.92 64.7701 24.47 66.1401C26.11 67.5901 26.3 69.94 24.78 71.59C23.09 73.42 21.33 75.1901 19.53 76.9001C18.74 77.6501 17.68 77.5 16.7 77.21C15.11 76.74 14.04 75.25 14.04 73.58Z" fill="#D7A100"/>
<path d="M49.41 34.51C43.43 34.53 38.52 29.69 38.48 23.72C38.44 17.65 43.3 12.72 49.35 12.71C55.38 12.7 60.26 17.56 60.27 23.58C60.29 29.62 55.44 34.49 49.41 34.51ZM58.86 23.66C58.88 18.38 54.66 14.14 49.37 14.13C44.19 14.12 39.94 18.34 39.89 23.53C39.85 28.8 44.08 33.08 49.35 33.1C54.59 33.12 58.83 28.9 58.86 23.66Z" fill="#D7A100"/>
<path d="M37.63 95.18C36.04 95.18 34.64 94.24 34.07 92.76C33.5 91.31 33.86 89.73 35.01 88.64C35.95 87.76 36.89 86.88 37.82 86C39 84.89 40.43 84.6599 41.89 85.3399C43.28 85.9899 44.17 87.48 44.07 88.98C44 89.95 43.65 90.8 42.95 91.49C42.08 92.36 41.2 93.2299 40.31 94.0799C39.56 94.7899 38.68 95.2 37.63 95.18Z" fill="#D7A100"/>
<path d="M66.29 8.25005C66.1 8.52005 65.99 8.75999 65.81 8.93999C64.52 10.25 63.21 11.55 61.91 12.85C61.56 13.2 61.15 13.4501 60.73 13.0401C60.31 12.6301 60.53 12.22 60.88 11.86C62.2 10.54 63.51 9.20008 64.86 7.91008C65.07 7.71008 65.47 7.63007 65.77 7.65007C65.95 7.68007 66.1 8.02005 66.29 8.25005Z" fill="#D7A100"/>
<path d="M38.14 12.6C37.97 12.82 37.84 13.1201 37.68 13.1501C37.4 13.2001 37.01 13.16 36.81 12.99C36.07 12.33 35.39 11.6101 34.69 10.9101C34.03 10.2501 33.37 9.58009 32.7 8.91009C32.36 8.57009 32.2 8.1701 32.58 7.7901C32.97 7.4001 33.37 7.5801 33.7 7.9201C35.05 9.2701 36.4 10.61 37.73 11.97C37.89 12.12 37.98 12.35 38.14 12.6Z" fill="#D7A100"/>
<path d="M49.96 4.63002C49.96 5.57002 50.01 6.51007 49.93 7.43007C49.9 7.73007 49.57 8.18001 49.31 8.24001C48.79 8.36001 48.58 7.91996 48.58 7.43996C48.57 5.51996 48.55 3.59006 48.61 1.67006C48.62 1.38006 48.98 0.920004 49.25 0.860004C49.76 0.750004 49.98 1.15005 49.98 1.66005C49.96 2.65005 49.96 3.64002 49.96 4.63002Z" fill="#D7A100"/>
<path d="M29.42 25.1899C28.46 25.1899 27.5 25.1899 26.53 25.1899C26.03 25.1899 25.58 25.09 25.59 24.47C25.6 23.85 26.07 23.77 26.55 23.77C28.42 23.77 30.29 23.78 32.16 23.78C32.65 23.78 33.14 23.86 33.15 24.45C33.17 25.1 32.65 25.1801 32.14 25.1801C31.24 25.1901 30.33 25.1899 29.42 25.1899Z" fill="#D7A100"/>
<path d="M69.1 23.78C70.01 23.78 70.92 23.78 71.83 23.78C72.31 23.78 72.73 23.91 72.74 24.46C72.76 25.06 72.32 25.2 71.81 25.2C69.99 25.19 68.17 25.1899 66.34 25.1899C65.84 25.1899 65.38 25.09 65.39 24.48C65.4 23.87 65.87 23.78 66.36 23.78C67.28 23.78 68.19 23.78 69.1 23.78Z" fill="#D7A100"/>
<path d="M48.42 24.31C49.87 22.72 51.26 21.2 52.65 19.68C52.9 19.4 53.15 19.1199 53.42 18.8499C54.23 18.0399 55.38 17.96 56.18 18.64C57.02 19.36 57.13 20.5499 56.34 21.4499C54.87 23.1199 53.35 24.75 51.85 26.4C51.25 27.05 50.6699 27.7199 50.0499 28.3599C49.1899 29.2499 48.11 29.33 47.18 28.51C45.63 27.14 44.11 25.7499 42.6 24.3399C41.73 23.5199 41.67 22.34 42.4 21.53C43.11 20.74 44.35 20.6899 45.22 21.4499C46.28 22.3499 47.3 23.3 48.42 24.31Z" fill="#D7A100"/>
</svg>
