<svg width="19" height="19" viewBox="0 0 19 19" fill="none" xmlns="http://www.w3.org/2000/svg">
<path d="M9.33997 0.389923C4.36997 0.389923 0.339966 4.41992 0.339966 9.38992C0.339966 14.3599 4.36997 18.3899 9.33997 18.3899C14.31 18.3899 18.34 14.3599 18.34 9.38992C18.34 4.41992 14.31 0.389923 9.33997 0.389923ZM12.8799 4.93992H11.83C10.79 4.93992 10.47 5.57992 10.47 6.24992V7.81992H12.7899L12.4199 10.2399H10.47V16.0799H7.85999V10.2399H5.73999V7.81992H7.85999V5.97992C7.85999 3.87992 9.1099 2.72992 11.0199 2.72992C11.9399 2.72992 12.8899 2.88992 12.8899 2.88992V4.93992H12.8799Z" fill="#D7A100"/>
</svg>
