<svg width="19" height="19" viewBox="0 0 19 19" fill="none" xmlns="http://www.w3.org/2000/svg">
<path d="M9.08997 8.09992C8.13997 8.09992 7.37 8.86992 7.37 9.81992C7.37 10.7699 8.13997 11.5399 9.08997 11.5399C10.04 11.5399 10.8099 10.7699 10.8099 9.81992C10.8099 8.86992 10.04 8.09992 9.08997 8.09992Z" fill="#D7A100"/>
<path d="M11.22 5.38992H6.85999C5.61999 5.38992 4.60999 6.39992 4.60999 7.63992V11.9999C4.60999 13.2399 5.61999 14.2499 6.85999 14.2499H11.22C12.46 14.2499 13.47 13.2399 13.47 11.9999V7.63992C13.47 6.39992 12.46 5.38992 11.22 5.38992ZM9.08997 12.5099C7.60997 12.5099 6.3999 11.2999 6.3999 9.81992C6.3999 8.33992 7.60997 7.12992 9.08997 7.12992C10.57 7.12992 11.7799 8.33992 11.7799 9.81992C11.7699 11.3099 10.57 12.5099 9.08997 12.5099ZM11.9299 7.59992C11.5799 7.59992 11.2899 7.30992 11.2899 6.95992C11.2899 6.60992 11.5799 6.31992 11.9299 6.31992C12.2799 6.31992 12.5699 6.60992 12.5699 6.95992C12.5699 7.30992 12.2799 7.59992 11.9299 7.59992Z" fill="#D7A100"/>
<path d="M9.03992 0.819923C4.06992 0.819923 0.039917 4.84992 0.039917 9.81992C0.039917 14.7899 4.06992 18.8199 9.03992 18.8199C14.0099 18.8199 18.0399 14.7899 18.0399 9.81992C18.0399 4.84992 14.0099 0.819923 9.03992 0.819923ZM14.5 11.9999C14.5 13.8099 13.03 15.2799 11.22 15.2799H6.85999C5.04999 15.2799 3.57996 13.8099 3.57996 11.9999V7.63992C3.57996 5.82992 5.04999 4.35992 6.85999 4.35992H11.22C13.03 4.35992 14.5 5.82992 14.5 7.63992V11.9999Z" fill="#D7A100"/>
</svg>
