<svg width="30" height="30" viewBox="0 0 30 30" fill="none" xmlns="http://www.w3.org/2000/svg">
<g clip-path="url(#clip0_87_1875)">
<path d="M29.67 0.00170898H0V29.9517L4.42 28.4817V27.1517H20.63V26.8517L26.69 20.6317H26.98V4.91171H27.51V4.31171L28.34 4.55171L29.67 0.00170898ZM20.63 25.4117V20.6217H25.3L20.63 25.4117ZM27.49 3.91171H26.98V2.62171H25.98V19.6317H19.63V26.1417H3.42V27.7517L1 28.5617V4.91171H1.5V3.91171H1V1.00171H3.42V1.31171H4.42V1.00171H28.34L27.49 3.91171Z" fill="black"/>
<path d="M16.89 3.91174H14.97V4.91174H16.89V3.91174Z" fill="black"/>
<path d="M24.59 3.91174H22.67V4.91174H24.59V3.91174Z" fill="black"/>
<path d="M20.74 3.91174H18.82V4.91174H20.74V3.91174Z" fill="black"/>
<path d="M4.41998 19.3118H3.41998V21.3118H4.41998V19.3118Z" fill="black"/>
<path d="M4.41998 23.3118H3.41998V25.3118H4.41998V23.3118Z" fill="black"/>
<path d="M4.41998 13.3118V11.3418V11.3118H3.41998V11.3418V13.3118V13.3418H4.41998V13.3118Z" fill="black"/>
<path d="M4.38998 15.3117H3.41998V17.3117H4.41998V15.3817H6.38998V14.3817H4.38998V15.3117Z" fill="black"/>
<path d="M14.89 9.01172H13.89V11.0117H14.89V9.01172Z" fill="black"/>
<path d="M4.41998 9.31177V7.34177V7.31177H3.41998V7.34177V9.31177V9.34177H4.41998V9.31177Z" fill="black"/>
<path d="M10.39 14.3817H8.39001V15.3817H10.39V14.3817Z" fill="black"/>
<path d="M14.89 5.01172H13.89V7.01172H14.89V5.01172Z" fill="black"/>
<path d="M12.39 15.3817H14.89V13.0117H13.89V14.3817H12.39V15.3817Z" fill="black"/>
<path d="M4.41998 3.91177V3.31177H3.41998V3.91177V5.31177V5.34177H4.41998V5.31177V4.91177H4.98998H5.34998V3.91177H4.98998H4.41998Z" fill="black"/>
<path d="M8.98999 4.91174H9.19999V3.91174H8.98999H7.26999H6.98999V4.91174H7.26999H8.98999Z" fill="black"/>
<path d="M12.99 4.91174H13.04V3.91174H12.99H11.12H10.99V4.91174H11.12H12.99Z" fill="black"/>
</g>
<defs>
<clipPath id="clip0_87_1875">
<rect width="29.67" height="29.95" fill="white" transform="translate(0 0.00170898)"/>
</clipPath>
</defs>
</svg>
