<svg width="19" height="19" viewBox="0 0 19 19" fill="none" xmlns="http://www.w3.org/2000/svg">
<path d="M9.44995 0.669922C4.47995 0.669922 0.449951 4.69992 0.449951 9.66992C0.449951 14.6399 4.47995 18.6699 9.44995 18.6699C14.42 18.6699 18.45 14.6399 18.45 9.66992C18.45 4.69992 14.42 0.669922 9.44995 0.669922ZM6.85999 13.8099H4.91992V7.56992H6.85999V13.8099ZM5.88989 6.70992C5.26989 6.70992 4.75989 6.19993 4.75989 5.57993C4.75989 4.95993 5.25989 4.45992 5.88989 4.45992C6.50989 4.45992 7.0199 4.95993 7.0199 5.57993C7.0199 6.20993 6.50989 6.70992 5.88989 6.70992ZM14.1299 13.8099H12.1899V10.7699C12.1899 10.0499 12.1799 9.10992 11.1799 9.10992C10.1699 9.10992 10.0199 9.89992 10.0199 10.7099V13.7999H8.07996V7.55993H9.93994V8.40992H9.96997C10.23 7.91992 10.8599 7.39993 11.8099 7.39993C13.7699 7.39993 14.1399 8.68992 14.1399 10.3699V13.8099H14.1299Z" fill="#D7A100"/>
</svg>
