<svg width="12" height="19" viewBox="0 0 12 19" fill="none" xmlns="http://www.w3.org/2000/svg">
<path d="M9.84998 0.979919H2.31995C1.14995 0.979919 0.199951 1.92992 0.199951 3.09992V13.3999V13.6299V16.2299C0.199951 17.3999 1.14995 18.3499 2.31995 18.3499H9.84998C11.02 18.3499 11.97 17.3999 11.97 16.2299V13.6299V13.3999V3.09992C11.98 1.92992 11.03 0.979919 9.84998 0.979919ZM7.0199 16.6799H5.16992C4.60992 16.6799 4.1499 16.2199 4.1499 15.6599C4.1499 15.0999 4.60992 14.6399 5.16992 14.6399H7.0199C7.5799 14.6399 8.03992 15.0999 8.03992 15.6599C8.03992 16.2199 7.5799 16.6799 7.0199 16.6799ZM10.71 12.7999C10.71 13.5499 10.1 14.1499 9.35999 14.1499H2.82996C2.07996 14.1499 1.47998 13.5399 1.47998 12.7999V3.38992C1.47998 2.63992 2.08996 2.03992 2.82996 2.03992H9.35999C10.11 2.03992 10.71 2.64992 10.71 3.38992V12.7999Z" fill="#D7A100"/>
</svg>
