<svg width="77" height="97" viewBox="0 0 77 97" fill="none" xmlns="http://www.w3.org/2000/svg">
<path d="M24.42 96.65C24.11 96.27 23.74 95.92 23.52 95.49C22.91 94.33 22.38 93.12 21.79 91.95C20.34 89.04 17.73 87.86 14.61 88.7C13.22 89.07 11.85 89.5199 10.44 89.8199C10.03 89.9099 9.36997 89.76 9.11997 89.46C8.86997 89.17 8.81001 88.48 8.97001 88.1C10.97 83.55 13.03 79.02 15.04 74.55C16.29 75.47 17.44 76.5 18.75 77.24C23.17 79.72 28.24 79.24 32.2 76.08C33.26 75.23 34.26 74.27 35.78 73.95C35.65 74.3 35.56 74.56 35.45 74.8C32.36 81.64 29.27 88.4899 26.15 95.3199C25.93 95.8099 25.49 96.2 25.16 96.63C24.92 96.65 24.67 96.65 24.42 96.65Z" fill="#D7A100"/>
<path d="M51.52 96.65C51.23 96.33 50.85 96.0501 50.68 95.6801C47.45 88.5901 44.24 81.49 41.04 74.38C40.99 74.28 40.99 74.15 41.12 73.83C41.95 74.34 42.85 74.77 43.59 75.39C45.31 76.8 47.11 78 49.32 78.47C53.78 79.42 57.6 78.1799 60.87 75.0699C61.05 74.8999 61.22 74.71 61.4 74.54C61.42 74.52 61.46 74.52 61.56 74.47C61.69 74.72 61.84 74.98 61.96 75.24C63.83 79.37 65.69 83.51 67.57 87.64C67.85 88.26 68.15 88.86 67.62 89.48C67.09 90.1 66.44 89.88 65.8 89.7C64.54 89.34 63.27 88.99 62 88.65C59.03 87.86 56.4 89.02 55 91.76C54.37 92.98 53.82 94.25 53.19 95.47C52.97 95.9 52.59 96.24 52.29 96.63C52.02 96.65 51.77 96.65 51.52 96.65Z" fill="#D7A100"/>
<path d="M17.4 65.95C17.48 59.2999 13.64 54.4 7.15996 53.16C1.43996 52.07 -0.459979 46.49 1.28002 42.54C1.90002 41.14 2.92999 40.12 4.11999 39.23C7.75999 36.49 9.50998 32.81 9.10998 28.29C8.95998 26.62 8.37001 24.92 7.64001 23.4C6.34001 20.7 6.17997 18.11 7.72997 15.52C9.38997 12.74 12.54 11.36 15.73 12.12C18.31 12.73 20.85 13.05 23.43 12.23C26.96 11.11 29.59 8.90999 31.08 5.48999C32.1 3.15999 33.56 1.37999 36.08 0.609986C39.69 -0.500014 43.51 1.05999 45.08 4.48999C46.37 7.30999 48.06 9.69996 50.84 11.21C53.67 12.74 56.65 13.18 59.75 12.34C62.6 11.57 65.2 11.79 67.5 13.8C70.01 16 70.82 19.63 69.33 22.62C68.24 24.81 67.38 27.02 67.47 29.52C67.61 33.43 69.16 36.62 72.27 39C73.99 40.31 75.37 41.79 75.86 43.99C76.73 47.94 74.26 52.0499 70.32 52.9399C68.16 53.4299 66.06 53.98 64.27 55.35C60.91 57.93 59.17 61.35 59.3 65.59C59.38 68.48 58.64 70.9101 56.24 72.6801C53.44 74.7401 49.78 74.73 47.1 72.52C45.05 70.83 42.89 69.48 40.21 69.11C36.6 68.6 33.37 69.46 30.55 71.78C29.25 72.85 27.94 73.8199 26.21 74.0699C21.43 74.7699 17.43 71.34 17.4 66.52C17.4 66.33 17.4 66.14 17.4 65.95ZM38.38 63.5C52.18 63.36 63.13 52.38 63.09 38.66C63.05 24.91 51.99 13.98 38.36 13.96C24.73 13.94 13.55 25.11 13.57 38.73C13.59 52.35 24.79 63.54 38.38 63.5Z" fill="#D7A100"/>
<path d="M38.29 58.85C27.12 58.78 18.12 49.7 18.21 38.61C18.3 27.52 27.42 18.4501 38.41 18.5401C49.56 18.6301 58.56 27.73 58.49 38.82C58.41 49.92 49.34 58.92 38.29 58.85ZM35.31 40.8001C34.51 39.6701 33.78 38.5901 33 37.5301C32.15 36.3701 30.76 36.09 29.71 36.82C28.65 37.56 28.42 38.9701 29.23 40.1501C30.36 41.8101 31.51 43.45 32.68 45.08C33.76 46.57 34.97 46.7601 36.47 45.6701C40.45 42.7801 44.42 39.88 48.39 36.97C49.67 36.03 49.98 34.6301 49.18 33.5501C48.37 32.4501 46.96 32.31 45.69 33.23C43.63 34.72 41.59 36.22 39.54 37.72C38.14 38.73 36.76 39.7401 35.31 40.8001Z" fill="#D7A100"/>
</svg>
