<svg width="118" height="100" viewBox="0 0 118 100" fill="none" xmlns="http://www.w3.org/2000/svg">
<path d="M9.10999 85.53C9.08999 85.21 9.07001 84.9599 9.07001 84.7099C9.07001 76.8099 9.08 68.91 9.06 61.01C9.06 60.34 9.20998 60.11 9.91998 60.05C14.27 59.68 18.61 59.16 22.97 58.85C30.3 58.33 37.33 59.68 44.12 62.48C53.84 66.49 63.57 70.46 73.33 74.36C75.41 75.19 76.49 77.53 75.79 79.48C75.03 81.61 72.9 82.69 70.64 82C62.47 79.5 54.3 76.99 46.12 74.49C45.96 74.44 45.81 74.39 45.65 74.35C44.83 74.14 44.1 74.53 43.87 75.29C43.65 76.02 44.02 76.75 44.8 77.01C45.97 77.41 47.16 77.76 48.34 78.12C55.51 80.32 62.67 82.5199 69.84 84.7099C73.91 85.9499 77.95 83.5099 78.69 79.3199C78.8 78.7299 79.06 78.53 79.59 78.39C90.21 75.44 100.83 72.48 111.45 69.52C114.6 68.64 117.44 70.5399 117.73 73.6899C117.9 75.5699 116.87 77.42 115.05 78.31C111.57 80.02 108.07 81.7 104.58 83.38C94.68 88.17 84.77 92.96 74.87 97.74C69.66 100.26 64.34 100.49 58.98 98.3299C48.47 94.0999 37.98 89.82 27.49 85.55C22.88 83.68 18.16 83.39 13.33 84.55C11.96 84.9 10.57 85.19 9.10999 85.53Z" fill="#D7A100"/>
<path d="M83.7801 53.25C81.8301 50.97 79.43 49.33 76.6 48.29C81.29 43.96 79.95 38.01 76.89 35.27C73.53 32.26 68.48 32.31 65.17 35.4C62.24 38.14 60.95 43.93 65.5 48.2C64.25 48.88 62.93 49.48 61.75 50.29C60.57 51.1 59.52 52.12 58.42 53.04C55.3 49.35 53.63 40.55 59.62 33.9C65.39 27.48 75.3 27.01 81.69 32.9C88.25 38.95 87.7301 48.18 83.7801 53.25Z" fill="#D7A100"/>
<path d="M63.61 23.23C63.84 21.02 64.04 18.96 64.29 16.9C64.44 15.67 64.09 14.66 63.26 13.76C61.86 12.23 60.47 10.69 58.98 9.04004C59.9 8.84004 60.7 8.65999 61.51 8.48999C62.81 8.20999 64.11 7.94004 65.42 7.67004C66.49 7.45004 67.29 6.87003 67.83 5.91003C68.76 4.26003 69.71 2.62999 70.65 0.98999C70.77 0.76999 70.91 0.56 71.1 0.25C71.31 0.59 71.47 0.829966 71.61 1.08997C72.52 2.66997 73.42 4.24996 74.32 5.82996C74.9 6.84996 75.74 7.45994 76.89 7.68994C78.95 8.09994 80.99 8.55001 83.18 9.01001C82.95 9.29001 82.79 9.48994 82.61 9.68994C81.37 11.0599 80.14 12.43 78.89 13.79C78.06 14.69 77.74 15.7199 77.9 16.9399C78.13 18.7899 78.32 20.65 78.51 22.51C78.53 22.71 78.51 22.92 78.51 23.21C77.68 22.85 76.9 22.51 76.11 22.16C74.96 21.65 73.81 21.13 72.66 20.6C71.59 20.11 70.55 20.13 69.48 20.61C67.78 21.39 66.07 22.14 64.37 22.9C64.17 23.02 63.95 23.1 63.61 23.23Z" fill="#D7A100"/>
<path d="M0.0499767 56.3101C1.83998 56.3101 3.50001 56.29 5.15001 56.32C5.81001 56.33 6.16998 56.74 6.23998 57.39C6.26998 57.62 6.24999 57.86 6.24999 58.09C6.24999 68.37 6.24999 78.66 6.24999 88.9399C6.24999 89.1699 6.24997 89.41 6.22997 89.64C6.15997 90.36 5.78998 90.75 5.04998 90.76C3.54998 90.78 2.05999 90.76 0.559986 90.78C0.159986 90.78 1.82148e-05 90.64 0.0300182 90.25C0.0500182 90.04 0.0300182 89.83 0.0300182 89.62C0.0300182 78.85 0.0300182 68.0701 0.0300182 57.3001C0.0500182 56.9901 0.0499767 56.6901 0.0499767 56.3101Z" fill="#D7A100"/>
<path d="M81.87 55.49C76.13 61.34 66.05 61.28 60.37 55.41C65.7 48.3 76.91 48.59 81.87 55.49Z" fill="#D7A100"/>
<path d="M102.97 19.63C102.03 20.67 101.21 21.62 100.34 22.52C99.48 23.41 99.16 24.43 99.33 25.65C99.5 26.87 99.6 28.1 99.75 29.46C99.44 29.34 99.21 29.27 99 29.17C98.06 28.75 97.11 28.35 96.19 27.9C95.08 27.35 94.01 27.38 92.9 27.92C91.79 28.46 90.65 28.93 89.38 29.5C89.44 28.9 89.48 28.4 89.54 27.91C89.64 27.01 89.76 26.1 89.83 25.2C89.91 24.27 89.61 23.46 88.98 22.76C88.07 21.76 87.17 20.75 86.18 19.65C86.76 19.51 87.24 19.4 87.73 19.29C88.6 19.1 89.47 18.93 90.33 18.75C91.28 18.55 91.98 18.0101 92.46 17.1801C93.13 16.0101 93.81 14.84 94.55 13.55C94.77 13.91 94.94 14.1701 95.09 14.4301C95.57 15.2601 96.06 16.08 96.51 16.92C97.1 18.04 98.02 18.64 99.25 18.86C100.45 19.07 101.63 19.35 102.97 19.63Z" fill="#D7A100"/>
<path d="M52.93 29.5C51.69 28.95 50.55 28.4799 49.44 27.9399C48.28 27.3699 47.17 27.38 46.02 27.95C44.94 28.49 43.82 28.95 42.58 29.5C42.67 28.6 42.65 27.78 42.84 27.01C43.41 24.75 42.75 22.9399 41.01 21.4399C40.43 20.9399 39.97 20.31 39.35 19.64C40.36 19.42 41.25 19.23 42.15 19.04C42.58 18.95 43.02 18.85 43.45 18.76C44.46 18.56 45.18 18 45.68 17.11C46.34 15.94 47.02 14.77 47.75 13.52C48.45 14.73 49.11 15.83 49.72 16.95C50.28 18 51.13 18.5899 52.28 18.8199C53.53 19.0599 54.78 19.34 56.16 19.63C55.27 20.62 54.49 21.54 53.64 22.4C52.68 23.38 52.32 24.48 52.54 25.84C52.72 27.01 52.79 28.2 52.93 29.5Z" fill="#D7A100"/>
<path d="M71.13 47.36C67.94 47.37 65.37 44.83 65.35 41.65C65.33 38.47 67.89 35.86 71.04 35.84C74.23 35.82 76.84 38.37 76.86 41.52C76.88 44.76 74.34 47.34 71.13 47.36Z" fill="#D7A100"/>
</svg>
