<svg width="89" height="90" viewBox="0 0 89 90" fill="none" xmlns="http://www.w3.org/2000/svg">
<path d="M81.3399 89.4001C79.2999 88.9801 77.7899 87.7501 76.3699 86.3001C71.77 81.6401 67.1299 77.0101 62.4699 72.4001C61.3699 71.3101 60.8099 70.1001 60.8599 68.5501C60.8699 68.1901 60.7498 67.73 60.5198 67.46C57.3298 63.81 54.0998 60.1901 50.8798 56.5601C50.7898 56.4501 50.6799 56.36 50.5299 56.23C42.7299 62.09 34.0499 64.2201 24.4899 62.1401C17.1399 60.5401 11.1499 56.62 6.60994 50.63C-2.90006 38.06 -1.68007 20.48 9.72993 9.47001C20.4199 -0.859992 36.99 -2.25992 49.25 6.42008C53.74 9.60008 57.1799 13.7 59.4899 18.71C61.7999 23.71 62.7198 28.97 62.2698 34.46C61.8198 39.95 59.9699 44.9501 56.8699 49.5501C57.7999 50.6001 58.6899 51.61 59.5899 52.62C62.0599 55.4 64.5299 58.2 67.0299 60.95C67.2999 61.24 67.7999 61.48 68.1899 61.48C69.6099 61.47 70.7698 61.98 71.7598 62.96C76.7598 67.92 81.7999 72.85 86.7399 77.86C87.6099 78.75 88.1199 80 88.7899 81.08C88.7899 82.12 88.7899 83.16 88.7899 84.2C88.3799 85.01 88.0499 85.87 87.5499 86.61C86.4899 88.19 84.8699 88.9501 83.0699 89.3901C82.4899 89.4001 81.9199 89.4001 81.3399 89.4001ZM3.41987 32.07C3.46987 47.51 16.0499 60.06 31.4299 60C46.9099 59.94 59.4199 47.42 59.3599 32.01C59.3099 16.59 46.9799 4.08998 31.3699 4.06998C15.9099 4.05998 3.36987 16.7 3.41987 32.07ZM68.1199 64.21C67.6 64.52 67.1299 64.7101 66.7799 65.0201C65.9699 65.7601 65.2199 66.56 64.4399 67.33C63.5499 68.23 63.5199 69.45 64.4299 70.36C69.3999 75.34 74.3699 80.3201 79.3599 85.2801C80.9599 86.8701 83.3899 86.9001 84.8999 85.4201C86.3799 83.9601 86.2999 81.66 84.6599 80.01C79.7199 75.04 74.7599 70.0901 69.7799 65.1501C69.3799 64.7501 68.7499 64.56 68.1199 64.21ZM64.6799 62.97C61.4099 59.31 58.2099 55.72 54.9699 52.09C54.1999 52.92 53.4898 53.68 52.7698 54.46C55.9898 58.07 59.1499 61.6201 62.3199 65.1801C63.1399 64.4101 63.8699 63.72 64.6799 62.97Z" fill="#D7A100"/>
<path d="M83.0699 89.4C84.8699 88.96 86.4899 88.2 87.5499 86.62C88.0499 85.87 88.3799 85.01 88.7899 84.21C88.7899 85.94 88.7899 87.67 88.7899 89.41C86.8799 89.4 84.9799 89.4 83.0699 89.4Z" fill="#D7A100"/>
<path d="M7.9099 60.05C8.8699 60.05 9.75991 60.05 10.7999 60.05C10.7999 60.41 10.7999 60.7399 10.7999 61.0699C10.7999 65.3399 10.8999 69.62 10.7699 73.89C10.6499 77.71 13.0799 79.22 16.0499 79.21C32.5299 79.15 49.02 79.1801 65.5 79.1801C65.87 79.1801 66.2499 79.1801 66.6899 79.1801C66.6899 80.1601 66.6899 81.09 66.6899 82.13C66.3599 82.13 66.05 82.13 65.75 82.13C49.09 82.13 32.4399 82.13 15.7799 82.13C12.5699 82.13 10.02 80.94 8.61998 77.95C8.15998 76.96 7.91989 75.79 7.89989 74.7C7.81989 70 7.86998 65.29 7.86998 60.58C7.85998 60.42 7.8899 60.28 7.9099 60.05Z" fill="#D7A100"/>
<path d="M81.4399 64.42C80.4399 64.42 79.5499 64.42 78.5399 64.42C78.5399 64.03 78.5399 63.67 78.5399 63.31C78.5399 47.72 78.5499 32.13 78.5199 16.55C78.5199 15.7 78.42 14.79 78.1 14.02C77.33 12.2 75.8199 11.4399 73.8799 11.4499C68.9199 11.4599 63.95 11.4499 58.99 11.4499C58.68 11.4499 58.36 11.4499 57.99 11.4499C57.99 10.4699 57.99 9.56004 57.99 8.56004C58.2 8.54004 58.45 8.50999 58.7 8.50999C63.75 8.50999 68.8 8.48999 73.85 8.50999C77.61 8.52999 80.3 10.5599 81.22 14.0899C81.41 14.8099 81.47 15.5699 81.47 16.3199C81.48 32.0799 81.48 47.84 81.48 63.6C81.48 63.84 81.4599 64.1 81.4399 64.42Z" fill="#D7A100"/>
<path d="M59.34 71.85C59.34 72.8 59.34 73.69 59.34 74.66C44.17 74.66 29.0099 74.66 13.7999 74.66C13.7999 73.74 13.7999 72.83 13.7999 71.85C28.9599 71.85 44.1 71.85 59.34 71.85Z" fill="#D7A100"/>
<path d="M13.7999 68.78C13.7999 67.82 13.7999 66.91 13.7999 65.95C27.0199 65.95 40.1999 65.95 53.4299 65.95C53.4299 66.9 53.4299 67.81 53.4299 68.78C40.2299 68.78 27.0599 68.78 13.7999 68.78Z" fill="#D7A100"/>
<path d="M75.5499 15.89C75.5499 16.85 75.5499 17.76 75.5499 18.72C71.1399 18.72 66.77 18.72 62.36 18.72C62.36 17.76 62.36 16.85 62.36 15.89C66.77 15.89 71.1399 15.89 75.5499 15.89Z" fill="#D7A100"/>
<path d="M65.34 23.25C68.75 23.25 72.1099 23.25 75.5299 23.25C75.5299 24.21 75.5299 25.14 75.5299 26.12C72.1299 26.12 68.77 26.12 65.34 26.12C65.34 25.2 65.34 24.27 65.34 23.25Z" fill="#D7A100"/>
<path d="M75.5499 37.99C75.5499 38.95 75.5499 39.8499 75.5499 40.8199C72.1499 40.8199 68.7699 40.8199 65.3199 40.8199C65.3199 39.8899 65.3199 38.96 65.3199 37.99C68.7399 37.99 72.1199 37.99 75.5499 37.99Z" fill="#D7A100"/>
<path d="M75.5199 33.45C72.1199 33.45 68.7399 33.45 65.3099 33.45C65.3099 32.48 65.3099 31.58 65.3099 30.61C68.7199 30.61 72.0799 30.61 75.5199 30.61C75.5199 31.54 75.5199 32.46 75.5199 33.45Z" fill="#D7A100"/>
<path d="M65.2999 48.15C65.2999 47.21 65.2999 46.32 65.2999 45.36C68.6999 45.36 72.0799 45.36 75.5299 45.36C75.5299 46.27 75.5299 47.17 75.5299 48.15C72.1499 48.15 68.7699 48.15 65.2999 48.15Z" fill="#D7A100"/>
<path d="M66.7799 55.54C66.7799 54.58 66.7799 53.69 66.7799 52.73C69.6899 52.73 72.5799 52.73 75.5299 52.73C75.5299 53.64 75.5299 54.55 75.5299 55.54C72.6499 55.54 69.7599 55.54 66.7799 55.54Z" fill="#D7A100"/>
<path d="M6.35997 32.03C6.49997 17.95 17.6599 6.99002 31.4599 7.03002C45.3899 7.08002 56.4199 18.25 56.4099 32.06C56.3999 45.9 45.11 57.16 31.34 57.06C17.46 56.95 6.31997 45.79 6.35997 32.03ZM9.30992 32.06C9.32992 44.26 19.2399 54.13 31.4299 54.11C43.6699 54.08 53.51 44.23 53.48 32.02C53.45 19.8 43.5299 9.88994 31.3899 9.94994C19.1599 10.0099 9.27992 19.9 9.30992 32.06Z" fill="#D7A100"/>
<path d="M49.6599 31.99C48.5399 33.83 46.9899 35.1 45.3499 36.2C37.2399 41.66 28.7999 42.1801 20.1099 37.6501C17.6799 36.3801 15.6799 34.5501 13.8399 32.5401C13.4699 32.1401 13.4399 31.7701 13.7899 31.4301C15.0499 30.2201 16.2298 28.89 17.6298 27.86C21.8798 24.74 26.7099 23.2701 31.9799 23.4301C37.9199 23.6101 43.0899 25.77 47.4499 29.82C48.1899 30.52 48.8899 31.24 49.6599 31.99ZM33.62 37.6C38.35 36.98 42.2599 35.14 45.6099 32.08C42.9799 29.25 37.3599 26.63 33.9399 26.61C38.7199 29.13 38.34 35.33 33.62 37.6ZM28.5599 37.4101C24.2799 34.8301 24.3599 28.97 29.1699 26.49C24.4399 27.1 20.5399 28.9501 17.1499 32.0501C20.4599 35.1101 24.2199 36.8901 28.5599 37.4101ZM28.4799 32.0001C28.4599 33.6101 29.7399 34.95 31.3399 34.99C32.9399 35.03 34.3499 33.6501 34.3499 32.0401C34.3499 30.4501 33.0199 29.12 31.4199 29.11C29.8099 29.1 28.4999 30.3801 28.4799 32.0001Z" fill="#D7A100"/>
<path d="M41.6499 17.39C41.6499 18.34 41.6499 19.25 41.6499 20.22C34.8299 20.22 28.0299 20.22 21.1499 20.22C21.1499 19.31 21.1499 18.38 21.1499 17.39C27.9499 17.39 34.7499 17.39 41.6499 17.39Z" fill="#D7A100"/>
<path d="M41.6499 43.88C41.6499 44.86 41.6499 45.77 41.6499 46.73C34.8099 46.73 28.0099 46.73 21.1399 46.73C21.1399 45.79 21.1399 44.86 21.1399 43.88C27.9699 43.88 34.7699 43.88 41.6499 43.88Z" fill="#D7A100"/>
</svg>
