<svg width="19" height="19" viewBox="0 0 19 19" fill="none" xmlns="http://www.w3.org/2000/svg">
<path d="M11.7899 9.17992L8.94995 7.63992C8.82995 7.56992 8.43994 7.65992 8.43994 7.78992V10.7999C8.43994 10.9299 8.82995 11.0199 8.94995 10.9499L11.9099 9.47992C12.0299 9.41992 11.9099 9.23992 11.7899 9.17992Z" fill="#D7A100"/>
<path d="M9.75 0.249924C4.78 0.249924 0.75 4.27992 0.75 9.24992C0.75 14.2199 4.78 18.2499 9.75 18.2499C14.72 18.2499 18.75 14.2199 18.75 9.24992C18.75 4.27992 14.72 0.249924 9.75 0.249924ZM15.7999 10.7899C15.7999 12.2199 14.64 13.3699 13.22 13.3699H6.60999C5.17999 13.3699 4.02991 12.2099 4.02991 10.7899V7.71992C4.02991 6.28993 5.18999 5.13992 6.60999 5.13992H13.22C14.65 5.13992 15.7999 6.29992 15.7999 7.71992V10.7899Z" fill="#D7A100"/>
</svg>
